<svg width="24" height="24" viewBox="0 0 24 24" fill="none" xmlns="http://www.w3.org/2000/svg">
<path d="M21.3332 0.800003V6.2288C22.322 7.8688 22.8708 9.736 22.9276 11.6496L22.9332 12V21.6C22.9332 22.004 22.7812 22.3928 22.5068 22.6888C22.2316 22.984 21.8556 23.1656 21.4532 23.196L21.3332 23.2H2.1332C1.7292 23.2 1.3404 23.048 1.0444 22.7728C0.748403 22.4984 0.567603 22.1224 0.537203 21.72L0.533203 21.6V12C0.533203 5.8144 5.5476 0.800003 11.7332 0.800003C14.8676 0.800003 17.7012 2.088 19.7332 4.1624V0.800003H21.3332ZM11.7332 2.4C6.5132 2.4 2.266 6.5672 2.1364 11.756L2.1332 12V21.6H7.7332V13.6H6.1332V12H17.3332V13.6H15.7332V21.6H21.3332V12C21.3332 6.6984 17.0348 2.4 11.7332 2.4ZM14.1332 13.6H9.3332V21.6H14.1332V13.6ZM11.7332 8C11.9452 8 12.1492 8.084 12.2988 8.2344C12.4492 8.384 12.5332 8.588 12.5332 8.8C12.5332 9.012 12.4492 9.216 12.2988 9.3656C12.1492 9.516 11.9452 9.6 11.7332 9.6C11.5212 9.6 11.3172 9.516 11.1676 9.3656C11.0172 9.216 10.9332 9.012 10.9332 8.8C10.9332 8.588 11.0172 8.384 11.1676 8.2344C11.3172 8.084 11.5212 8 11.7332 8Z" fill="white"/>
</svg>
