<svg width="24" height="24" viewBox="0 0 24 24" fill="none" xmlns="http://www.w3.org/2000/svg">
<path d="M18 8.73076L17.0845 9.54626C16.8897 9.73076 16.658 9.82301 16.3895 9.82301C16.1208 9.82301 15.8795 9.74743 15.6655 9.59626C15.4705 9.45126 15.3378 9.25793 15.2673 9.01626C15.1968 8.77459 15.2051 8.51151 15.2923 8.22701L15.7308 6.82301L14.7655 6.24626C14.5372 6.11543 14.3769 5.92918 14.2848 5.68751C14.1924 5.44584 14.1783 5.20259 14.2423 4.95776C14.3064 4.71926 14.4458 4.53209 14.6605 4.39626C14.8753 4.26026 15.1218 4.19226 15.4 4.19226H16.5538L16.8923 3.08851C16.9731 2.82318 17.1167 2.60743 17.323 2.44126C17.5295 2.27526 17.7552 2.19226 18 2.19226C18.2448 2.19226 18.4705 2.27526 18.677 2.44126C18.8833 2.60743 19.0269 2.82318 19.1077 3.08851L19.4462 4.19226H20.6C20.8718 4.19226 21.1125 4.26026 21.322 4.39626C21.5317 4.53209 21.6769 4.71926 21.7577 4.95776C21.8551 5.21293 21.8567 5.46293 21.7625 5.70776C21.6683 5.95259 21.5154 6.13209 21.3038 6.24626L20.2693 6.82301L20.7078 8.20776C20.7949 8.48593 20.8048 8.75159 20.7375 9.00476C20.6702 9.25793 20.5358 9.45509 20.3345 9.59626C20.1167 9.75393 19.8744 9.83109 19.6077 9.82776C19.3411 9.82459 19.1103 9.73076 18.9155 9.54626L18 8.73076ZM18 7.01926C18.2705 7.01926 18.4984 6.92659 18.6838 6.74126C18.8689 6.55609 18.9615 6.32826 18.9615 6.05776C18.9615 5.78726 18.8689 5.55934 18.6838 5.37401C18.4984 5.18884 18.2705 5.09626 18 5.09626C17.7295 5.09626 17.5016 5.18884 17.3163 5.37401C17.1311 5.55934 17.0385 5.78726 17.0385 6.05776C17.0385 6.32826 17.1311 6.55609 17.3163 6.74126C17.5016 6.92659 17.7295 7.01926 18 7.01926ZM13.3193 17.823C13.6641 18.7205 13.5471 19.5577 12.9682 20.3345C12.3894 21.1115 11.5827 21.5 10.548 21.5C10.0493 21.5 9.57983 21.3648 9.1395 21.0943C8.699 20.8238 8.36533 20.4616 8.1385 20.0078C6.91533 20.1308 5.89292 19.783 5.07125 18.9645C4.24942 18.1458 3.88975 17.1179 3.99225 15.8808C3.51792 15.6359 3.15067 15.2821 2.8905 14.8193C2.63017 14.3564 2.5 13.8308 2.5 13.2423C2.5 12.3026 2.92408 11.5587 3.77225 11.0105C4.62025 10.4625 5.47308 10.3654 6.33075 10.7193L7.7655 11.3115C8.041 10.75 8.44258 10.2923 8.97025 9.93851C9.49775 9.58468 10.0782 9.39109 10.7115 9.35776V7.92301C10.7115 7.75134 10.7679 7.60909 10.8808 7.49626C10.9936 7.38343 11.1359 7.32701 11.3077 7.32701C11.4794 7.32701 11.6217 7.38343 11.7345 7.49626C11.8473 7.60909 11.9038 7.75134 11.9038 7.92301V9.48076C12.5717 9.61276 13.133 9.90351 13.5875 10.353C14.042 10.8023 14.3693 11.3963 14.5693 12.1348H16.0962C16.2679 12.1348 16.4102 12.1911 16.523 12.3038C16.6358 12.4166 16.6923 12.5589 16.6923 12.7308C16.6923 12.9026 16.6358 13.0449 16.523 13.1578C16.4102 13.2706 16.2679 13.327 16.0962 13.327H14.6615C14.6282 13.9538 14.4365 14.5311 14.0865 15.0588C13.7365 15.5863 13.2808 15.991 12.7192 16.273L13.3193 17.823ZM7.7155 18.5385C7.68333 18.0885 7.70317 17.6398 7.775 17.1923C7.84683 16.7449 7.96417 16.3052 8.127 15.873C7.72433 16.0563 7.29258 16.1808 6.83175 16.2463C6.37092 16.3116 5.91417 16.3179 5.4615 16.2653C5.48083 16.9474 5.69883 17.4968 6.1155 17.9135C6.53217 18.3302 7.0655 18.5385 7.7155 18.5385ZM5.94225 14.7848C6.51408 14.7848 7.05225 14.6956 7.55675 14.5173C8.06125 14.3391 8.65775 14.0243 9.34625 13.573L6.01925 12.1693C5.49742 11.9501 5.03042 11.9591 4.61825 12.1963C4.20608 12.4334 4 12.8026 4 13.3038C4 13.7693 4.1705 14.1324 4.5115 14.3933C4.8525 14.6543 5.32942 14.7848 5.94225 14.7848ZM10.548 20C11.0352 20 11.4272 19.8269 11.724 19.4808C12.0208 19.1346 12.0898 18.7679 11.9308 18.3808L10.4845 14.7115C10.0653 15.3218 9.749 15.9145 9.5355 16.4895C9.322 17.0645 9.21525 17.6039 9.21525 18.1078C9.21525 18.6898 9.33358 19.1507 9.57025 19.4905C9.80675 19.8302 10.1327 20 10.548 20ZM12.1308 14.854C12.4384 14.6745 12.6872 14.4168 12.877 14.0808C13.0667 13.7449 13.1615 13.3821 13.1615 12.9923C13.1615 12.3949 12.9609 11.8873 12.5598 11.4693C12.1584 11.0513 11.6642 10.8423 11.077 10.8423C10.668 10.8423 10.2965 10.9372 9.9625 11.127C9.6285 11.3167 9.37942 11.5705 9.21525 11.8885L11.2808 12.8078L12.1308 14.854Z" fill="white"/>
</svg>
